<svg width="33" height="32" viewBox="0 0 33 32" fill="none" xmlns="http://www.w3.org/2000/svg">
<path fill-rule="evenodd" clip-rule="evenodd" d="M17 13.6667C17.2685 13.6667 17.5261 13.7721 17.7159 13.9596C17.9058 14.1471 18.0125 14.4015 18.0125 14.6667V16.3334H19.7C19.9685 16.3334 20.2261 16.4387 20.4159 16.6263C20.6058 16.8138 20.7125 17.0681 20.7125 17.3334C20.7125 17.5986 20.6058 17.8529 20.4159 18.0405C20.2261 18.228 19.9685 18.3334 19.7 18.3334H18.0125V20C18.0125 20.2652 17.9058 20.5196 17.7159 20.7071C17.5261 20.8947 17.2685 21 17 21C16.7315 21 16.4739 20.8947 16.2841 20.7071C16.0942 20.5196 15.9875 20.2652 15.9875 20V18.3334H14.3C14.0315 18.3334 13.7739 18.228 13.5841 18.0405C13.3942 17.8529 13.2875 17.5986 13.2875 17.3334C13.2875 17.0681 13.3942 16.8138 13.5841 16.6263C13.7739 16.4387 14.0315 16.3334 14.3 16.3334H15.9875V14.6667C15.9875 14.4015 16.0942 14.1471 16.2841 13.9596C16.4739 13.7721 16.7315 13.6667 17 13.6667Z" fill="#CDD2D7"/>
<path fill-rule="evenodd" clip-rule="evenodd" d="M14.0003 28H19.9997C24.2131 28 26.3204 28 27.8337 27.02C28.4867 26.5973 29.0491 26.0518 29.4888 25.4147C30.5 23.948 30.5 21.904 30.5 17.8187C30.5 13.732 30.5 11.6894 29.4888 10.2227C29.0491 9.58553 28.4868 9.04005 27.8337 8.61738C26.8617 7.98672 25.644 7.76139 23.7797 7.68139C22.89 7.68139 22.1246 7.02805 21.9505 6.18139C21.8174 5.56122 21.4716 5.00544 20.9715 4.608C20.4714 4.21055 19.8478 3.99581 19.2059 4.00006H14.7941C13.4603 4.00006 12.3115 4.91339 12.0496 6.18139C11.8754 7.02805 11.11 7.68139 10.2203 7.68139C8.3573 7.76139 7.1396 7.98805 6.16625 8.61738C5.51369 9.04013 4.95176 9.58561 4.5125 10.2227C3.5 11.6894 3.5 13.732 3.5 17.8187C3.5 21.904 3.5 23.9467 4.51115 25.4147C4.94855 26.0493 5.51015 26.5947 6.16625 27.02C7.6796 28 9.78695 28 14.0003 28ZM22.4 17.3334C22.4 18.7478 21.8311 20.1044 20.8184 21.1046C19.8057 22.1048 18.4322 22.6667 17 22.6667C15.5678 22.6667 14.1943 22.1048 13.1816 21.1046C12.1689 20.1044 11.6 18.7478 11.6 17.3334C11.6 15.9189 12.1689 14.5623 13.1816 13.5621C14.1943 12.5619 15.5678 12 17 12C18.4322 12 19.8057 12.5619 20.8184 13.5621C21.8311 14.5623 22.4 15.9189 22.4 17.3334ZM25.1 12.3334C24.8315 12.3334 24.5739 12.4387 24.3841 12.6263C24.1942 12.8138 24.0875 13.0682 24.0875 13.3334C24.0875 13.5986 24.1942 13.8529 24.3841 14.0405C24.5739 14.228 24.8315 14.3334 25.1 14.3334H26.45C26.7185 14.3334 26.9761 14.228 27.1659 14.0405C27.3558 13.8529 27.4625 13.5986 27.4625 13.3334C27.4625 13.0682 27.3558 12.8138 27.1659 12.6263C26.9761 12.4387 26.7185 12.3334 26.45 12.3334H25.1Z" fill="#CDD2D7"/>
</svg>
