<svg width="104" height="106" viewBox="0 0 104 106" fill="none" xmlns="http://www.w3.org/2000/svg">
<path d="M51.1533 25.3657H64.4102C67.1283 25.3657 69.4639 25.7726 71.417 26.5864C73.3864 27.4002 74.9001 28.6047 75.958 30.1997C77.016 31.7948 77.5448 33.756 77.5448 36.0835C77.5448 37.9878 77.2193 39.6235 76.5683 40.9907C75.9335 42.3416 75.0302 43.4728 73.8583 44.3843C72.7027 45.2795 71.3438 45.9956 69.7813 46.5327L67.4618 47.7534H55.9384L55.8896 42.0405H64.4589C65.7447 42.0405 66.8108 41.8127 67.6571 41.3569C68.5035 40.9012 69.1384 40.2664 69.5615 39.4526C70.001 38.6388 70.2207 37.6948 70.2207 36.6206C70.2207 35.4813 70.009 34.4966 69.5858 33.6665C69.1627 32.8364 68.5198 32.2017 67.6571 31.7622C66.7945 31.3228 65.7122 31.103 64.4102 31.103H58.4775V60.9126H51.1533V25.3657ZM71.0263 60.9126L62.9208 45.0679L70.6602 45.019L78.8632 60.5708V60.9126H71.0263Z" fill="#43906B"/>
<path d="M101.979 43.4126C101.979 64.6756 84.7425 81.9126 63.4795 81.9126C42.2166 81.9126 24.9795 64.6756 24.9795 43.4126C24.9795 22.1496 42.2166 4.9126 63.4795 4.9126C84.7425 4.9126 101.979 22.1496 101.979 43.4126ZM31.0167 43.4126C31.0167 61.3413 45.5508 75.8754 63.4795 75.8754C81.4083 75.8754 95.9425 61.3413 95.9425 43.4126C95.9425 25.4838 81.4083 10.9497 63.4795 10.9497C45.5508 10.9497 31.0167 25.4838 31.0167 43.4126Z" fill="#43906B"/>
<path d="M103.74 67.579C99.2357 75.4498 92.535 81.8369 84.4572 85.9584C76.3794 90.0799 67.2753 91.7571 58.2591 90.7848C32.5749 88.0853 14.0016 65.2442 16.6917 39.6497C17.6429 30.6134 21.2075 22.0504 26.9493 15.0084C32.6911 7.96642 40.3611 2.75092 49.0208 0C36.6405 0.9215 24.9779 6.16482 16.0716 14.8135C7.1652 23.4621 1.58187 34.9659 0.297416 47.3138C-0.438724 54.2183 0.194926 61.2001 2.16203 67.8593C4.1291 74.5184 7.391 80.7239 11.7608 86.1201C16.1305 91.5162 21.5222 95.9972 27.6268 99.3052C33.7315 102.614 40.429 104.686 47.3356 105.401C59.6797 106.705 72.0898 103.633 82.3997 96.7202C92.7096 89.8079 100.265 79.4942 103.746 67.5796L103.74 67.579Z" fill="#43906B"/>
</svg>
