<svg width="386" height="116" viewBox="0 0 386 116" fill="none" xmlns="http://www.w3.org/2000/svg">
<path d="M132.018 61.4839V47.8853C132.018 46.8436 131.806 45.9403 131.383 45.1753C130.976 44.3941 130.357 43.7918 129.527 43.3687C128.697 42.9455 127.672 42.7339 126.451 42.7339C125.312 42.7339 124.311 42.9292 123.448 43.3198C122.602 43.7105 121.935 44.2232 121.446 44.8579C120.974 45.4927 120.738 46.1763 120.738 46.9087H116.222C116.222 45.9647 116.466 45.0288 116.954 44.1011C117.442 43.1734 118.142 42.3351 119.054 41.5864C119.981 40.8215 121.088 40.2193 122.374 39.7798C123.676 39.3241 125.125 39.0962 126.72 39.0962C128.64 39.0962 130.333 39.4217 131.798 40.0728C133.279 40.7238 134.435 41.7085 135.265 43.0269C136.111 44.329 136.534 45.9647 136.534 47.9341V60.2388C136.534 61.1177 136.607 62.0536 136.754 63.0464C136.917 64.0392 137.153 64.8937 137.462 65.6099V66.0005H132.75C132.522 65.4797 132.343 64.7879 132.213 63.9253C132.083 63.0464 132.018 62.2326 132.018 61.4839ZM132.799 49.9849L132.848 53.1587H128.282C126.996 53.1587 125.849 53.2645 124.84 53.4761C123.831 53.6714 122.984 53.9725 122.301 54.3794C121.617 54.7863 121.096 55.299 120.738 55.9175C120.38 56.5197 120.201 57.2277 120.201 58.0415C120.201 58.8716 120.388 59.6284 120.763 60.312C121.137 60.9956 121.699 61.5409 122.447 61.9478C123.212 62.3384 124.148 62.5337 125.255 62.5337C126.638 62.5337 127.859 62.2407 128.917 61.6548C129.975 61.0689 130.813 60.3527 131.432 59.5064C132.066 58.66 132.408 57.8381 132.457 57.0405L134.386 59.2134C134.272 59.897 133.963 60.6538 133.458 61.4839C132.953 62.314 132.278 63.1115 131.432 63.8765C130.602 64.6252 129.609 65.2518 128.453 65.7564C127.314 66.2446 126.028 66.4888 124.596 66.4888C122.805 66.4888 121.235 66.1388 119.884 65.439C118.549 64.7391 117.507 63.8032 116.759 62.6314C116.026 61.4432 115.66 60.1167 115.66 58.6519C115.66 57.2359 115.937 55.9907 116.49 54.9165C117.044 53.826 117.841 52.9227 118.883 52.2066C119.924 51.4741 121.178 50.9207 122.643 50.5464C124.107 50.172 125.743 49.9849 127.55 49.9849H132.799ZM160.265 76.1567V44.6626L160.655 39.5845H164.806V76.1567H160.265ZM142.516 53.0855V52.5728C142.516 50.5545 142.752 48.7235 143.224 47.0796C143.696 45.4194 144.387 43.9953 145.299 42.8071C146.21 41.619 147.309 40.7075 148.595 40.0728C149.897 39.4217 151.378 39.0962 153.038 39.0962C154.698 39.0962 156.155 39.3892 157.408 39.9751C158.678 40.5448 159.752 41.383 160.631 42.4898C161.526 43.5803 162.234 44.8986 162.755 46.4448C163.276 47.9911 163.634 49.7407 163.829 51.6939V53.94C163.65 55.8768 163.3 57.6183 162.779 59.1646C162.258 60.7108 161.55 62.0291 160.655 63.1196C159.776 64.2101 158.694 65.0484 157.408 65.6343C156.139 66.204 154.666 66.4888 152.989 66.4888C151.362 66.4888 149.897 66.1551 148.595 65.4878C147.309 64.8205 146.21 63.8846 145.299 62.6802C144.404 61.4758 143.712 60.0597 143.224 58.4321C142.752 56.7883 142.516 55.006 142.516 53.0855ZM147.057 52.5728V53.0855C147.057 54.4038 147.195 55.6489 147.472 56.8208C147.748 57.9764 148.172 59.0018 148.741 59.897C149.327 60.7922 150.06 61.5002 150.938 62.021C151.834 62.5256 152.892 62.7778 154.112 62.7778C155.61 62.7778 156.855 62.4523 157.848 61.8013C158.857 61.1502 159.662 60.2957 160.265 59.2378C160.867 58.1636 161.331 57.0161 161.656 55.7954V49.9116C161.477 49.0165 161.192 48.1457 160.802 47.2993C160.427 46.453 159.939 45.6961 159.337 45.0288C158.735 44.3452 158.002 43.8081 157.14 43.4175C156.293 43.0106 155.3 42.8071 154.161 42.8071C152.924 42.8071 151.858 43.0676 150.963 43.5884C150.068 44.1092 149.327 44.8254 148.741 45.7368C148.172 46.632 147.748 47.6655 147.472 48.8374C147.195 50.0093 147.057 51.2544 147.057 52.5728ZM187.633 61.4839V47.8853C187.633 46.8436 187.421 45.9403 186.998 45.1753C186.591 44.3941 185.973 43.7918 185.143 43.3687C184.312 42.9455 183.287 42.7339 182.066 42.7339C180.927 42.7339 179.926 42.9292 179.063 43.3198C178.217 43.7105 177.55 44.2232 177.061 44.8579C176.589 45.4927 176.353 46.1763 176.353 46.9087H171.837C171.837 45.9647 172.081 45.0288 172.569 44.1011C173.058 43.1734 173.757 42.3351 174.669 41.5864C175.597 40.8215 176.703 40.2193 177.989 39.7798C179.291 39.3241 180.74 39.0962 182.335 39.0962C184.256 39.0962 185.948 39.4217 187.413 40.0728C188.894 40.7238 190.05 41.7085 190.88 43.0269C191.726 44.329 192.149 45.9647 192.149 47.9341V60.2388C192.149 61.1177 192.223 62.0536 192.369 63.0464C192.532 64.0392 192.768 64.8937 193.077 65.6099V66.0005H188.365C188.137 65.4797 187.958 64.7879 187.828 63.9253C187.698 63.0464 187.633 62.2326 187.633 61.4839ZM188.414 49.9849L188.463 53.1587H183.897C182.612 53.1587 181.464 53.2645 180.455 53.4761C179.446 53.6714 178.6 53.9725 177.916 54.3794C177.232 54.7863 176.712 55.299 176.353 55.9175C175.995 56.5197 175.816 57.2277 175.816 58.0415C175.816 58.8716 176.004 59.6284 176.378 60.312C176.752 60.9956 177.314 61.5409 178.062 61.9478C178.827 62.3384 179.763 62.5337 180.87 62.5337C182.254 62.5337 183.474 62.2407 184.532 61.6548C185.59 61.0689 186.428 60.3527 187.047 59.5064C187.682 58.66 188.023 57.8381 188.072 57.0405L190.001 59.2134C189.887 59.897 189.578 60.6538 189.073 61.4839C188.569 62.314 187.893 63.1115 187.047 63.8765C186.217 64.6252 185.224 65.2518 184.068 65.7564C182.929 66.2446 181.643 66.4888 180.211 66.4888C178.421 66.4888 176.85 66.1388 175.499 65.439C174.164 64.7391 173.123 63.8032 172.374 62.6314C171.642 61.4432 171.275 60.1167 171.275 58.6519C171.275 57.2359 171.552 55.9907 172.105 54.9165C172.659 53.826 173.456 52.9227 174.498 52.2066C175.54 51.4741 176.793 50.9207 178.258 50.5464C179.723 50.172 181.358 49.9849 183.165 49.9849H188.414ZM203.746 44.8335V66.0005H199.205V39.5845H203.502L203.746 44.8335ZM202.818 51.7915L200.719 51.7183C200.735 49.9116 200.971 48.2433 201.427 46.7134C201.882 45.1672 202.558 43.8244 203.453 42.6851C204.348 41.5457 205.463 40.6668 206.798 40.0484C208.132 39.4136 209.679 39.0962 211.437 39.0962C212.673 39.0962 213.813 39.2752 214.854 39.6333C215.896 39.9751 216.799 40.5204 217.564 41.2691C218.329 42.0178 218.923 42.978 219.347 44.1499C219.77 45.3218 219.981 46.7378 219.981 48.398V66.0005H215.465V48.6177C215.465 47.2342 215.229 46.1275 214.757 45.2974C214.301 44.4673 213.65 43.8651 212.804 43.4907C211.957 43.1001 210.964 42.9048 209.825 42.9048C208.491 42.9048 207.376 43.1408 206.48 43.6128C205.585 44.0848 204.869 44.7359 204.332 45.5659C203.795 46.396 203.404 47.3482 203.16 48.4224C202.932 49.4803 202.818 50.6034 202.818 51.7915ZM219.933 49.3013L216.905 50.229C216.922 48.7804 217.158 47.3888 217.613 46.0542C218.085 44.7196 218.761 43.5314 219.64 42.4898C220.535 41.4481 221.633 40.6262 222.936 40.0239C224.238 39.4054 225.727 39.0962 227.403 39.0962C228.819 39.0962 230.073 39.2834 231.163 39.6577C232.27 40.0321 233.198 40.6099 233.946 41.3911C234.711 42.1561 235.289 43.1408 235.68 44.3452C236.07 45.5497 236.266 46.9819 236.266 48.6421V66.0005H231.725V48.5933C231.725 47.1122 231.489 45.9647 231.017 45.1509C230.561 44.3208 229.91 43.743 229.063 43.4175C228.233 43.0757 227.241 42.9048 226.085 42.9048C225.092 42.9048 224.213 43.0757 223.448 43.4175C222.683 43.7593 222.04 44.2313 221.52 44.8335C220.999 45.4194 220.6 46.0949 220.323 46.8599C220.063 47.6248 219.933 48.4387 219.933 49.3013ZM248.009 28.5005V66.0005H243.468V28.5005H248.009ZM260.167 39.5845V66.0005H255.626V39.5845H260.167ZM255.284 32.5776C255.284 31.8452 255.504 31.2267 255.943 30.7222C256.399 30.2176 257.066 29.9653 257.945 29.9653C258.808 29.9653 259.467 30.2176 259.923 30.7222C260.395 31.2267 260.631 31.8452 260.631 32.5776C260.631 33.2775 260.395 33.8797 259.923 34.3843C259.467 34.8726 258.808 35.1167 257.945 35.1167C257.066 35.1167 256.399 34.8726 255.943 34.3843C255.504 33.8797 255.284 33.2775 255.284 32.5776ZM284.728 39.5845V66.0005H280.187V39.5845H284.728ZM279.845 32.5776C279.845 31.8452 280.064 31.2267 280.504 30.7222C280.96 30.2176 281.627 29.9653 282.506 29.9653C283.368 29.9653 284.028 30.2176 284.483 30.7222C284.955 31.2267 285.191 31.8452 285.191 32.5776C285.191 33.2775 284.955 33.8797 284.483 34.3843C284.028 34.8726 283.368 35.1167 282.506 35.1167C281.627 35.1167 280.96 34.8726 280.504 34.3843C280.064 33.8797 279.845 33.2775 279.845 32.5776ZM308.629 60.8735V28.5005H313.17V66.0005H309.02L308.629 60.8735ZM290.855 53.0855V52.5728C290.855 50.5545 291.1 48.7235 291.588 47.0796C292.092 45.4194 292.8 43.9953 293.712 42.8071C294.64 41.619 295.738 40.7075 297.008 40.0728C298.294 39.4217 299.726 39.0962 301.305 39.0962C302.965 39.0962 304.413 39.3892 305.65 39.9751C306.904 40.5448 307.962 41.383 308.824 42.4898C309.703 43.5803 310.395 44.8986 310.899 46.4448C311.404 47.9911 311.754 49.7407 311.949 51.6939V53.94C311.77 55.8768 311.42 57.6183 310.899 59.1646C310.395 60.7108 309.703 62.0291 308.824 63.1196C307.962 64.2101 306.904 65.0484 305.65 65.6343C304.397 66.204 302.932 66.4888 301.256 66.4888C299.71 66.4888 298.294 66.1551 297.008 65.4878C295.738 64.8205 294.64 63.8846 293.712 62.6802C292.8 61.4758 292.092 60.0597 291.588 58.4321C291.1 56.7883 290.855 55.006 290.855 53.0855ZM295.396 52.5728V53.0855C295.396 54.4038 295.527 55.6408 295.787 56.7964C296.064 57.952 296.487 58.9693 297.057 59.8482C297.626 60.7271 298.351 61.4188 299.229 61.9234C300.108 62.4116 301.158 62.6558 302.379 62.6558C303.876 62.6558 305.105 62.3384 306.065 61.7036C307.042 61.0689 307.823 60.2306 308.409 59.189C308.995 58.1473 309.451 57.0161 309.776 55.7954V49.9116C309.581 49.0165 309.296 48.1538 308.922 47.3237C308.564 46.4774 308.092 45.7287 307.506 45.0776C306.936 44.4103 306.228 43.8814 305.382 43.4907C304.552 43.1001 303.567 42.9048 302.428 42.9048C301.191 42.9048 300.125 43.1652 299.229 43.686C298.351 44.1906 297.626 44.8905 297.057 45.7857C296.487 46.6646 296.064 47.69 295.787 48.8618C295.527 50.0174 295.396 51.2544 295.396 52.5728ZM319.005 53.0855V52.5239C319.005 50.6196 319.282 48.8537 319.835 47.2261C320.388 45.5822 321.186 44.1581 322.228 42.9536C323.269 41.7329 324.531 40.7889 326.012 40.1216C327.493 39.438 329.153 39.0962 330.992 39.0962C332.848 39.0962 334.516 39.438 335.997 40.1216C337.494 40.7889 338.764 41.7329 339.806 42.9536C340.864 44.1581 341.669 45.5822 342.223 47.2261C342.776 48.8537 343.053 50.6196 343.053 52.5239V53.0855C343.053 54.9898 342.776 56.7557 342.223 58.3833C341.669 60.0109 340.864 61.4351 339.806 62.6558C338.764 63.8602 337.503 64.8042 336.021 65.4878C334.557 66.1551 332.896 66.4888 331.041 66.4888C329.186 66.4888 327.517 66.1551 326.036 65.4878C324.555 64.8042 323.285 63.8602 322.228 62.6558C321.186 61.4351 320.388 60.0109 319.835 58.3833C319.282 56.7557 319.005 54.9898 319.005 53.0855ZM323.521 52.5239V53.0855C323.521 54.4038 323.676 55.6489 323.985 56.8208C324.295 57.9764 324.758 59.0018 325.377 59.897C326.012 60.7922 326.801 61.5002 327.745 62.021C328.689 62.5256 329.788 62.7778 331.041 62.7778C332.278 62.7778 333.36 62.5256 334.288 62.021C335.232 61.5002 336.013 60.7922 336.632 59.897C337.25 59.0018 337.714 57.9764 338.023 56.8208C338.349 55.6489 338.512 54.4038 338.512 53.0855V52.5239C338.512 51.2219 338.349 49.993 338.023 48.8374C337.714 47.6655 337.242 46.632 336.607 45.7368C335.989 44.8254 335.208 44.1092 334.264 43.5884C333.336 43.0676 332.245 42.8071 330.992 42.8071C329.755 42.8071 328.665 43.0676 327.721 43.5884C326.793 44.1092 326.012 44.8254 325.377 45.7368C324.758 46.632 324.295 47.6655 323.985 48.8374C323.676 49.993 323.521 51.2219 323.521 52.5239ZM353.233 43.7349V66.0005H348.717V39.5845H353.111L353.233 43.7349ZM361.485 39.438L361.461 43.6372C361.087 43.5558 360.728 43.507 360.387 43.4907C360.061 43.4582 359.687 43.4419 359.264 43.4419C358.222 43.4419 357.302 43.6047 356.505 43.9302C355.707 44.2557 355.032 44.7114 354.478 45.2974C353.925 45.8833 353.486 46.5832 353.16 47.397C352.851 48.1945 352.647 49.0734 352.55 50.0337L351.28 50.7661C351.28 49.1711 351.435 47.6737 351.744 46.2739C352.07 44.8742 352.566 43.6372 353.233 42.563C353.901 41.4725 354.747 40.6262 355.772 40.0239C356.814 39.4054 358.051 39.0962 359.483 39.0962C359.809 39.0962 360.183 39.1369 360.606 39.2183C361.03 39.2834 361.323 39.3566 361.485 39.438ZM380.26 61.4839V47.8853C380.26 46.8436 380.048 45.9403 379.625 45.1753C379.218 44.3941 378.6 43.7918 377.77 43.3687C376.939 42.9455 375.914 42.7339 374.693 42.7339C373.554 42.7339 372.553 42.9292 371.69 43.3198C370.844 43.7105 370.177 44.2232 369.688 44.8579C369.216 45.4927 368.98 46.1763 368.98 46.9087H364.464C364.464 45.9647 364.708 45.0288 365.196 44.1011C365.685 43.1734 366.384 42.3351 367.296 41.5864C368.224 40.8215 369.33 40.2193 370.616 39.7798C371.918 39.3241 373.367 39.0962 374.962 39.0962C376.882 39.0962 378.575 39.4217 380.04 40.0728C381.521 40.7238 382.677 41.7085 383.507 43.0269C384.353 44.329 384.776 45.9647 384.776 47.9341V60.2388C384.776 61.1177 384.85 62.0536 384.996 63.0464C385.159 64.0392 385.395 64.8937 385.704 65.6099V66.0005H380.992C380.764 65.4797 380.585 64.7879 380.455 63.9253C380.325 63.0464 380.26 62.2326 380.26 61.4839ZM381.041 49.9849L381.09 53.1587H376.524C375.239 53.1587 374.091 53.2645 373.082 53.4761C372.073 53.6714 371.227 53.9725 370.543 54.3794C369.859 54.7863 369.339 55.299 368.98 55.9175C368.622 56.5197 368.443 57.2277 368.443 58.0415C368.443 58.8716 368.631 59.6284 369.005 60.312C369.379 60.9956 369.941 61.5409 370.689 61.9478C371.454 62.3384 372.39 62.5337 373.497 62.5337C374.881 62.5337 376.101 62.2407 377.159 61.6548C378.217 61.0689 379.055 60.3527 379.674 59.5064C380.309 58.66 380.65 57.8381 380.699 57.0405L382.628 59.2134C382.514 59.897 382.205 60.6538 381.7 61.4839C381.196 62.314 380.52 63.1115 379.674 63.8765C378.844 64.6252 377.851 65.2518 376.695 65.7564C375.556 66.2446 374.27 66.4888 372.838 66.4888C371.048 66.4888 369.477 66.1388 368.126 65.439C366.791 64.7391 365.75 63.8032 365.001 62.6314C364.269 61.4432 363.902 60.1167 363.902 58.6519C363.902 57.2359 364.179 55.9907 364.732 54.9165C365.286 53.826 366.083 52.9227 367.125 52.2066C368.167 51.4741 369.42 50.9207 370.885 50.5464C372.35 50.172 373.985 49.9849 375.792 49.9849H381.041Z" fill="#43906B"/>
<path d="M57.1729 30.4536H70.4298C73.1479 30.4536 75.4835 30.8605 77.4366 31.6743C79.406 32.4881 80.9197 33.6926 81.9776 35.2876C83.0356 36.8827 83.5644 38.8439 83.5644 41.1714C83.5644 43.0757 83.2388 44.7114 82.5878 46.0786C81.953 47.4295 81.0497 48.5607 79.8778 49.4722C78.7222 50.3674 77.3634 51.0835 75.8009 51.6206L73.4813 52.8413H61.958L61.9091 47.1284H70.4785C71.7643 47.1284 72.8303 46.9006 73.6766 46.4448C74.523 45.9891 75.158 45.3543 75.5811 44.5405C76.0206 43.7267 76.2403 42.7827 76.2403 41.7085C76.2403 40.5692 76.0286 39.5845 75.6054 38.7544C75.1823 37.9243 74.5393 37.2896 73.6766 36.8501C72.814 36.4107 71.7318 36.1909 70.4298 36.1909H64.4971V66.0005H57.1729V30.4536ZM77.0458 66.0005L68.9403 50.1558L76.6798 50.1069L84.8827 65.6587V66.0005H77.0458Z" fill="#43906B"/>
<path d="M107.999 48.5005C107.999 69.7635 90.762 87.0005 69.499 87.0005C48.2361 87.0005 30.999 69.7635 30.999 48.5005C30.999 27.2375 48.2361 10.0005 69.499 10.0005C90.762 10.0005 107.999 27.2375 107.999 48.5005ZM37.0362 48.5005C37.0362 66.4292 51.5703 80.9633 69.499 80.9633C87.4278 80.9633 101.962 66.4292 101.962 48.5005C101.962 30.5717 87.4278 16.0376 69.499 16.0376C51.5703 16.0376 37.0362 30.5717 37.0362 48.5005Z" fill="#43906B"/>
<path d="M109.759 72.6669C105.255 80.5377 98.5545 86.9248 90.4767 91.0463C82.3989 95.1678 73.2948 96.845 64.2786 95.8727C38.5944 93.1732 20.0211 70.3321 22.7112 44.7376C23.6624 35.7013 27.227 27.1383 32.9688 20.0963C38.7106 13.0543 46.3806 7.83881 55.0403 5.08789C42.66 6.00939 30.9974 11.2527 22.0911 19.9014C13.1847 28.55 7.6014 40.0538 6.31695 52.4017C5.58081 59.3062 6.21446 66.288 8.18156 72.9472C10.1486 79.6063 13.4105 85.8118 17.7803 91.208C22.15 96.6041 27.5417 101.085 33.6463 104.393C39.751 107.702 46.4485 109.774 53.3551 110.489C65.6992 111.793 78.1093 108.721 88.4192 101.808C98.7291 94.8958 106.284 84.5821 109.765 72.6675L109.759 72.6669Z" fill="#43906B"/>
</svg>
