<svg width="24" height="24" viewBox="0 0 24 24" fill="none" xmlns="http://www.w3.org/2000/svg">
<g id="vuesax/linear/archive-book">
<g id="archive-book">
<path id="Vector" d="M22 7V17C22 20 20.3333 22 16.4444 22H7.55556C3.66667 22 2 20 2 17V7C2 4 3.66667 2 7.55556 2H16.4444C20.3333 2 22 4 22 7Z" stroke="#00A76F" stroke-width="1.5" stroke-miterlimit="10" stroke-linecap="round" stroke-linejoin="round"/>
<path id="Vector_2" d="M15.5 2V9.85999C15.5 10.3 14.98 10.52 14.66 10.23L12.34 8.09003C12.15 7.91003 11.85 7.91003 11.66 8.09003L9.34003 10.23C9.02003 10.52 8.5 10.3 8.5 9.85999V2H15.5Z" stroke="#00A76F" stroke-width="1.5" stroke-miterlimit="10" stroke-linecap="round" stroke-linejoin="round"/>
<path id="Vector_3" d="M13.25 14H17.5" stroke="#00A76F" stroke-width="1.5" stroke-miterlimit="10" stroke-linecap="round" stroke-linejoin="round"/>
<path id="Vector_4" d="M9 18H17.5" stroke="#00A76F" stroke-width="1.5" stroke-miterlimit="10" stroke-linecap="round" stroke-linejoin="round"/>
</g>
</g>
</svg>
