<svg width="24" height="24" viewBox="0 0 24 24" fill="none" xmlns="http://www.w3.org/2000/svg">
<g id="start icon">
<path id="shape" d="M17 3.50584C17 3.22979 16.7761 3.00601 16.5 3.00601H14C11.3793 2.87551 9.14528 4.88548 9 7.50451V10.2036H6.5C6.22386 10.2036 6 10.4274 6 10.7034V13.3026C6 13.5786 6.22386 13.8024 6.5 13.8024H9V20.5002C9 20.7762 9.22386 21 9.5 21H12.5C12.7761 21 13 20.7762 13 20.5002V13.8024H15.62C15.8487 13.8057 16.0505 13.6534 16.11 13.4325L16.83 10.8334C16.8703 10.6837 16.8389 10.5238 16.7449 10.4005C16.6509 10.2772 16.5051 10.2045 16.35 10.2036H13V7.50451C13.0515 6.99178 13.4845 6.60223 14 6.60481H16.5C16.7761 6.60481 17 6.38103 17 6.10498V3.50584Z" fill="#1877F2"/>
</g>
</svg>
