<svg width="24" height="24" viewBox="0 0 24 24" fill="none" xmlns="http://www.w3.org/2000/svg">
<g id="logos:telegram" clip-path="url(#clip0_1308_21733)">
<path id="Vector" d="M12 0C8.81812 0 5.76375 1.26506 3.51562 3.51469C1.26518 5.76521 0.000623381 8.81734 0 12C0 15.1813 1.26562 18.2357 3.51562 20.4853C5.76375 22.7349 8.81812 24 12 24C15.1819 24 18.2362 22.7349 20.4844 20.4853C22.7344 18.2357 24 15.1813 24 12C24 8.81869 22.7344 5.76431 20.4844 3.51469C18.2362 1.26506 15.1819 0 12 0Z" fill="url(#paint0_linear_1308_21733)"/>
<path id="Vector_2" d="M5.89355 11.7355C9.38387 10.1833 11.7107 9.15986 12.8742 8.66543C16.1999 7.25359 16.8901 7.00838 17.3409 7.00007C17.44 6.99845 17.6608 7.02347 17.8048 7.14235C17.9245 7.24261 17.9582 7.37819 17.975 7.47339C17.99 7.5685 18.0105 7.78525 17.9937 7.95445C17.8141 9.88707 17.0341 14.5769 16.6376 16.7416C16.4711 17.6575 16.14 17.9646 15.8202 17.9945C15.1244 18.0599 14.5969 17.5255 13.9235 17.075C12.8704 16.3698 12.2756 15.9309 11.2525 15.2429C10.0703 14.4476 10.8372 14.0105 11.5106 13.2963C11.6864 13.1093 14.7503 10.2648 14.8083 10.0068C14.8157 9.97454 14.8232 9.85423 14.7522 9.79082C14.6829 9.72723 14.5801 9.749 14.5052 9.76619C14.3986 9.79063 12.7171 10.9265 9.45495 13.1737C8.97798 13.5086 8.54589 13.6719 8.15683 13.6633C7.73037 13.654 6.90735 13.4166 6.29571 13.2138C5.54751 12.965 4.95083 12.8334 5.0032 12.4108C5.02939 12.1908 5.3268 11.9656 5.89355 11.7355Z" fill="white"/>
</g>
<defs>
<linearGradient id="paint0_linear_1308_21733" x1="1200" y1="0" x2="1200" y2="2400" gradientUnits="userSpaceOnUse">
<stop stop-color="#2AABEE"/>
<stop offset="1" stop-color="#229ED9"/>
</linearGradient>
<clipPath id="clip0_1308_21733">
<rect width="24" height="24" fill="white"/>
</clipPath>
</defs>
</svg>
