<svg width="24" height="18" viewBox="0 0 24 18" fill="none" xmlns="http://www.w3.org/2000/svg">
<g id="logos:youtube-icon" clip-path="url(#clip0_1308_21740)">
<path id="Vector" d="M23.4704 2.8187C23.3327 2.27389 23.0642 1.7772 22.6915 1.3781C22.3188 0.979001 21.855 0.691408 21.3463 0.543961C19.4838 0 11.988 0 11.988 0C11.988 0 4.49184 0.0164654 2.62937 0.560426C2.12063 0.707882 1.65684 0.99549 1.28417 1.39461C0.911512 1.79373 0.642987 2.29044 0.505339 2.83526C-0.0580142 6.37914 -0.276549 11.7792 0.520808 15.1813C0.65847 15.7261 0.927002 16.2228 1.29966 16.6219C1.67232 17.021 2.13611 17.3086 2.64484 17.456C4.50731 18 12.0033 18 12.0033 18C12.0033 18 19.4992 18 21.3616 17.456C21.8703 17.3086 22.3342 17.021 22.7068 16.6219C23.0795 16.2228 23.3481 15.7261 23.4857 15.1813C24.0799 11.6324 24.263 6.23567 23.4704 2.8187Z" fill="#FF0000"/>
<path id="Vector_2" d="M9.88281 12.75L16.2358 9L9.88281 5.25V12.75Z" fill="white"/>
</g>
<defs>
<clipPath id="clip0_1308_21740">
<rect width="24" height="18" fill="white"/>
</clipPath>
</defs>
</svg>
